<svg width="390" height="460" viewBox="0 0 390 460" fill="none" xmlns="http://www.w3.org/2000/svg">
<g filter="url(#filter0_d_214_3094)">
<path fill-rule="evenodd" clip-rule="evenodd" d="M116.718 377.466C110.74 357.994 94.8139 341.155 74.4443 341.155H36.9829C16.5578 341.155 0 324.597 0 304.172V-6.01714C0 -26.4422 16.5578 -43 36.9829 -43H353.017C373.442 -43 390 -26.4422 390 -6.01712V304.172C390 324.597 373.442 341.155 353.017 341.155H314.531C294.161 341.155 278.235 357.994 272.257 377.466C260.314 416.366 229.999 444 194.487 444C158.976 444 128.661 416.366 116.718 377.466Z" fill="url(#paint0_linear_214_3094)"/>
</g>
<defs>
<filter id="filter0_d_214_3094" x="-11.5" y="-50.5" width="413" height="510" filterUnits="userSpaceOnUse" color-interpolation-filters="sRGB">
<feFlood flood-opacity="0" result="BackgroundImageFix"/>
<feColorMatrix in="SourceAlpha" type="matrix" values="0 0 0 0 0 0 0 0 0 0 0 0 0 0 0 0 0 0 127 0" result="hardAlpha"/>
<feOffset dy="4"/>
<feGaussianBlur stdDeviation="5.75"/>
<feComposite in2="hardAlpha" operator="out"/>
<feColorMatrix type="matrix" values="0 0 0 0 0 0 0 0 0 0 0 0 0 0 0 0 0 0 0.1 0"/>
<feBlend mode="normal" in2="BackgroundImageFix" result="effect1_dropShadow_214_3094"/>
<feBlend mode="normal" in="SourceGraphic" in2="effect1_dropShadow_214_3094" result="shape"/>
</filter>
<linearGradient id="paint0_linear_214_3094" x1="195" y1="-43" x2="195" y2="444" gradientUnits="userSpaceOnUse">
<stop stop-color="#F47E9A"/>
<stop offset="0.5" stop-color="#F47E9A"/>
<stop offset="1" stop-color="#F18896"/>
</linearGradient>
</defs>
</svg>
